<svg width="54" height="55" viewBox="0 0 54 55" fill="none" xmlns="http://www.w3.org/2000/svg">
<path d="M0.784424 15.0928C0.784424 6.8085 7.50015 0.0927734 15.7844 0.0927734H38.4209C46.7052 0.0927734 53.4209 6.8085 53.4209 15.0928V39.0259C53.4209 47.3101 46.7052 54.0259 38.4209 54.0259H15.7844C7.50015 54.0259 0.784424 47.3101 0.784424 39.0259V15.0928Z" fill="#EBD96B"/>
<path d="M39.6849 21.9359C39.701 22.1662 39.701 22.3966 39.701 22.6269C39.701 29.6521 34.4825 37.7469 24.9445 37.7469C22.0061 37.7469 19.2764 36.8748 16.9802 35.3613C17.3977 35.4106 17.7991 35.427 18.2327 35.427C20.6573 35.427 22.8892 34.588 24.6716 33.1566C22.3915 33.1072 20.4807 31.5771 19.8223 29.4712C20.1435 29.5205 20.4646 29.5534 20.8018 29.5534C21.2675 29.5534 21.7332 29.4876 22.1667 29.3725C19.7902 28.8789 18.0078 26.74 18.0078 24.157V24.0912C18.6983 24.4861 19.5012 24.7328 20.3521 24.7657C18.9552 23.8114 18.04 22.1827 18.04 20.3399C18.04 19.3528 18.2968 18.4479 18.7465 17.6582C21.2995 20.8829 25.1372 22.9888 29.4405 23.2192C29.3602 22.8243 29.312 22.413 29.312 22.0017C29.312 19.0731 31.6242 16.6875 34.4984 16.6875C35.9917 16.6875 37.3405 17.3292 38.2879 18.3657C39.46 18.1353 40.584 17.6911 41.5796 17.0824C41.1942 18.3163 40.3753 19.3529 39.2995 20.0109C40.3432 19.8958 41.3548 19.5996 42.2861 19.1883C41.5797 20.2412 40.6965 21.179 39.6849 21.9359Z" fill="black"/>
</svg>
