<svg width="54" height="55" viewBox="0 0 54 55" fill="none" xmlns="http://www.w3.org/2000/svg">
<path d="M0.511597 15.0928C0.511597 6.8085 7.22732 0.0927734 15.5116 0.0927734H38.1481C46.4323 0.0927734 53.1481 6.8085 53.1481 15.0928V39.0259C53.1481 47.3101 46.4323 54.0259 38.1481 54.0259H15.5116C7.22732 54.0259 0.511597 47.3101 0.511597 39.0259V15.0928Z" fill="#EBD96B"/>
<path d="M32.4095 28.161L33.1123 23.4683H28.7179V20.4232C28.7179 19.1394 29.3317 17.888 31.2999 17.888H33.2977V13.8927C33.2977 13.8927 31.4847 13.5757 29.7514 13.5757C26.1324 13.5757 23.7669 15.8232 23.7669 19.8919V23.4683H19.7441V28.161H23.7669V39.5051H28.7179V28.161H32.4095Z" fill="black"/>
</svg>
