<svg width="53" height="55" viewBox="0 0 53 55" fill="none" xmlns="http://www.w3.org/2000/svg">
<path d="M0.147949 15.0928C0.147949 6.8085 6.86368 0.0927734 15.1479 0.0927734H37.7844C46.0687 0.0927734 52.7844 6.8085 52.7844 15.0928V39.0259C52.7844 47.3101 46.0687 54.0259 37.7844 54.0259H15.1479C6.86367 54.0259 0.147949 47.3101 0.147949 39.0259V15.0928Z" fill="#EBD96B"/>
<path d="M26.4116 21.1794C23.2681 21.1794 20.7325 23.7774 20.7325 26.9983C20.7325 30.2192 23.2681 32.8172 26.4116 32.8172C29.555 32.8172 32.0906 30.2192 32.0906 26.9983C32.0906 23.7774 29.555 21.1794 26.4116 21.1794ZM26.4116 30.7813C24.3802 30.7813 22.7195 29.0848 22.7195 26.9983C22.7195 24.9118 24.3752 23.2152 26.4116 23.2152C28.4479 23.2152 30.1037 24.9118 30.1037 26.9983C30.1037 29.0848 28.443 30.7813 26.4116 30.7813ZM33.6475 20.9414C33.6475 21.6959 33.0544 22.2986 32.3229 22.2986C31.5864 22.2986 30.9983 21.6909 30.9983 20.9414C30.9983 20.1918 31.5914 19.5841 32.3229 19.5841C33.0544 19.5841 33.6475 20.1918 33.6475 20.9414ZM37.4088 22.3188C37.3248 20.5008 36.9195 18.8903 35.6196 17.5634C34.3246 16.2366 32.7529 15.8213 30.9785 15.7302C29.1498 15.6238 23.6684 15.6238 21.8397 15.7302C20.0702 15.8162 18.4985 16.2315 17.1986 17.5584C15.8987 18.8852 15.4984 20.4957 15.4094 22.3138C15.3056 24.1876 15.3056 29.8039 15.4094 31.6777C15.4934 33.4958 15.8987 35.1063 17.1986 36.4331C18.4985 37.76 20.0653 38.1753 21.8397 38.2664C23.6684 38.3728 29.1498 38.3728 30.9785 38.2664C32.7529 38.1803 34.3246 37.7651 35.6196 36.4331C36.9145 35.1063 37.3198 33.4958 37.4088 31.6777C37.5126 29.8039 37.5126 24.1927 37.4088 22.3188ZM35.0462 33.6883C34.6607 34.6809 33.9144 35.4456 32.9407 35.8457C31.4826 36.4382 28.0228 36.3015 26.4116 36.3015C24.8003 36.3015 21.3355 36.4331 19.8824 35.8457C18.9137 35.4507 18.1673 34.6859 17.7769 33.6883C17.1986 32.1943 17.3321 28.6493 17.3321 26.9983C17.3321 25.3473 17.2035 21.7972 17.7769 20.3083C18.1624 19.3157 18.9087 18.551 19.8824 18.1509C21.3405 17.5584 24.8003 17.6951 26.4116 17.6951C28.0228 17.6951 31.4876 17.5634 32.9407 18.1509C33.9095 18.5459 34.6558 19.3106 35.0462 20.3083C35.6245 21.8023 35.4911 25.3473 35.4911 26.9983C35.4911 28.6493 35.6245 32.1994 35.0462 33.6883Z" fill="black"/>
</svg>
