<svg width="53" height="55" viewBox="0 0 53 55" fill="none" xmlns="http://www.w3.org/2000/svg">
<path d="M0.148056 15.0928C0.148056 6.8085 6.86378 0.0927734 15.1481 0.0927734H37.7845C46.0688 0.0927734 52.7845 6.8085 52.7845 15.0928V39.0259C52.7845 47.3101 46.0688 54.0259 37.7845 54.0259H15.1481C6.86378 54.0259 0.148056 47.3101 0.148056 39.0259V15.0928Z" fill="#EBD96B"/>
<path d="M26.4117 21.1794C23.2682 21.1794 20.7326 23.7774 20.7326 26.9983C20.7326 30.2192 23.2682 32.8172 26.4117 32.8172C29.5551 32.8172 32.0907 30.2192 32.0907 26.9983C32.0907 23.7774 29.5551 21.1794 26.4117 21.1794ZM26.4117 30.7813C24.3803 30.7813 22.7196 29.0848 22.7196 26.9983C22.7196 24.9118 24.3753 23.2152 26.4117 23.2152C28.448 23.2152 30.1038 24.9118 30.1038 26.9983C30.1038 29.0848 28.4431 30.7813 26.4117 30.7813ZM33.6476 20.9414C33.6476 21.6959 33.0545 22.2986 32.323 22.2986C31.5865 22.2986 30.9984 21.6909 30.9984 20.9414C30.9984 20.1918 31.5915 19.5841 32.323 19.5841C33.0545 19.5841 33.6476 20.1918 33.6476 20.9414ZM37.4089 22.3188C37.3249 20.5008 36.9196 18.8903 35.6197 17.5634C34.3247 16.2366 32.753 15.8213 30.9786 15.7302C29.1499 15.6238 23.6685 15.6238 21.8398 15.7302C20.0703 15.8162 18.4986 16.2315 17.1987 17.5584C15.8988 18.8852 15.4985 20.4957 15.4095 22.3138C15.3057 24.1876 15.3057 29.8039 15.4095 31.6777C15.4935 33.4958 15.8988 35.1063 17.1987 36.4331C18.4986 37.76 20.0654 38.1753 21.8398 38.2664C23.6685 38.3728 29.1499 38.3728 30.9786 38.2664C32.753 38.1803 34.3247 37.7651 35.6197 36.4331C36.9146 35.1063 37.3199 33.4958 37.4089 31.6777C37.5127 29.8039 37.5127 24.1927 37.4089 22.3188ZM35.0464 33.6883C34.6608 34.6809 33.9145 35.4456 32.9408 35.8457C31.4828 36.4382 28.023 36.3015 26.4117 36.3015C24.8004 36.3015 21.3356 36.4331 19.8825 35.8457C18.9138 35.4507 18.1675 34.6859 17.777 33.6883C17.1987 32.1943 17.3322 28.6493 17.3322 26.9983C17.3322 25.3473 17.2037 21.7972 17.777 20.3083C18.1625 19.3157 18.9088 18.551 19.8825 18.1509C21.3406 17.5584 24.8004 17.6951 26.4117 17.6951C28.023 17.6951 31.4877 17.5634 32.9408 18.1509C33.9096 18.5459 34.6559 19.3106 35.0464 20.3083C35.6246 21.8023 35.4912 25.3473 35.4912 26.9983C35.4912 28.6493 35.6246 32.1994 35.0464 33.6883Z" fill="black"/>
</svg>
