<svg width="54" height="55" viewBox="0 0 54 55" fill="none" xmlns="http://www.w3.org/2000/svg">
<path d="M0.784515 15.0928C0.784515 6.8085 7.50024 0.0927734 15.7845 0.0927734H38.421C46.7052 0.0927734 53.421 6.8085 53.421 15.0928V39.0259C53.421 47.3101 46.7052 54.0259 38.421 54.0259H15.7845C7.50024 54.0259 0.784515 47.3101 0.784515 39.0259V15.0928Z" fill="#EBD96B"/>
<path d="M39.6851 21.9359C39.7012 22.1662 39.7012 22.3966 39.7012 22.6269C39.7012 29.6521 34.4826 37.7469 24.9447 37.7469C22.0062 37.7469 19.2765 36.8748 16.9804 35.3613C17.3979 35.4106 17.7993 35.427 18.2328 35.427C20.6574 35.427 22.8894 34.588 24.6717 33.1566C22.3916 33.1072 20.4808 31.5771 19.8225 29.4712C20.1436 29.5205 20.4647 29.5534 20.802 29.5534C21.2676 29.5534 21.7333 29.4876 22.1668 29.3725C19.7904 28.8789 18.008 26.74 18.008 24.157V24.0912C18.6984 24.4861 19.5013 24.7328 20.3523 24.7657C18.9553 23.8114 18.0401 22.1827 18.0401 20.3399C18.0401 19.3528 18.297 18.4479 18.7466 17.6582C21.2997 20.8829 25.1374 22.9888 29.4406 23.2192C29.3603 22.8243 29.3122 22.413 29.3122 22.0017C29.3122 19.0731 31.6244 16.6875 34.4986 16.6875C35.9919 16.6875 37.3407 17.3292 38.2881 18.3657C39.4602 18.1353 40.5842 17.6911 41.5798 17.0824C41.1944 18.3163 40.3755 19.3529 39.2997 20.0109C40.3434 19.8958 41.355 19.5996 42.2863 19.1883C41.5799 20.2412 40.6967 21.179 39.6851 21.9359Z" fill="black"/>
</svg>
