<svg width="26" height="22" viewBox="0 0 26 22" fill="none" xmlns="http://www.w3.org/2000/svg">
<path d="M23.028 5.93587C23.044 6.16619 23.044 6.39657 23.044 6.6269C23.044 13.6521 17.8255 21.7469 8.28756 21.7469C5.3491 21.7469 2.61941 20.8748 0.323242 19.3613C0.740742 19.4106 1.14213 19.427 1.57569 19.427C4.00027 19.427 6.23224 18.588 8.01458 17.1566C5.73447 17.1072 3.82367 15.5771 3.16532 13.4712C3.48649 13.5205 3.80761 13.5534 4.14484 13.5534C4.61048 13.5534 5.07617 13.4876 5.50968 13.3725C3.13324 12.8789 1.35085 10.74 1.35085 8.15698V8.0912C2.04128 8.48606 2.8442 8.73285 3.69517 8.76571C2.2982 7.81144 1.38298 6.18265 1.38298 4.33995C1.38298 3.35281 1.63985 2.44791 2.08947 1.65818C4.64256 4.88289 8.48022 6.98879 12.7835 7.21917C12.7032 6.8243 12.655 6.41303 12.655 6.00171C12.655 3.0731 14.9673 0.6875 17.8415 0.6875C19.3348 0.6875 20.6835 1.32915 21.6309 2.36567C22.8031 2.13534 23.9271 1.6911 24.9226 1.08237C24.5372 2.31634 23.7183 3.35286 22.6425 4.01092C23.6863 3.8958 24.6979 3.59959 25.6291 3.18832C24.9227 4.24124 24.0395 5.179 23.028 5.93587Z" fill="black"/>
</svg>
