<svg width="23" height="24" viewBox="0 0 23 24" fill="none" xmlns="http://www.w3.org/2000/svg">
<path d="M11.5829 6.17937C8.43947 6.17937 5.90393 8.77738 5.90393 11.9983C5.90393 15.2192 8.43947 17.8172 11.5829 17.8172C14.7264 17.8172 17.262 15.2192 17.262 11.9983C17.262 8.77738 14.7264 6.17937 11.5829 6.17937ZM11.5829 15.7813C9.55155 15.7813 7.89084 14.0848 7.89084 11.9983C7.89084 9.91179 9.54661 8.21524 11.5829 8.21524C13.6193 8.21524 15.2751 9.91179 15.2751 11.9983C15.2751 14.0848 13.6143 15.7813 11.5829 15.7813ZM18.8189 5.94135C18.8189 6.69594 18.2258 7.29859 17.4943 7.29859C16.7578 7.29859 16.1697 6.69087 16.1697 5.94135C16.1697 5.19183 16.7628 4.58411 17.4943 4.58411C18.2258 4.58411 18.8189 5.19183 18.8189 5.94135ZM22.5802 7.31885C22.4962 5.50075 22.0909 3.8903 20.791 2.56344C19.496 1.23659 17.9243 0.821312 16.1499 0.730154C14.3211 0.623803 8.83982 0.623803 7.01107 0.730154C5.24162 0.816247 3.66989 1.23152 2.36999 2.55838C1.07009 3.88523 0.669742 5.49569 0.580775 7.31378C0.476981 9.18759 0.476981 14.8039 0.580775 16.6777C0.664799 18.4958 1.07009 20.1063 2.36999 21.4331C3.66989 22.76 5.23668 23.1753 7.01107 23.2664C8.83982 23.3728 14.3211 23.3728 16.1499 23.2664C17.9243 23.1803 19.496 22.7651 20.791 21.4331C22.0859 20.1063 22.4912 18.4958 22.5802 16.6777C22.684 14.8039 22.684 9.19265 22.5802 7.31885ZM20.2176 18.6883C19.8321 19.6809 19.0858 20.4456 18.1121 20.8457C16.654 21.4382 13.1942 21.3015 11.5829 21.3015C9.97167 21.3015 6.50692 21.4331 5.05381 20.8457C4.08506 20.4507 3.33873 19.6859 2.94827 18.6883C2.36999 17.1943 2.50344 13.6493 2.50344 11.9983C2.50344 10.3473 2.37493 6.79722 2.94827 5.30831C3.33379 4.3157 4.08012 3.55099 5.05381 3.1509C6.51187 2.55838 9.97167 2.69511 11.5829 2.69511C13.1942 2.69511 16.659 2.56344 18.1121 3.1509C19.0808 3.54592 19.8272 4.31064 20.2176 5.30831C20.7959 6.80229 20.6625 10.3473 20.6625 11.9983C20.6625 13.6493 20.7959 17.1994 20.2176 18.6883Z" fill="black"/>
</svg>
